<?xml version="1.0" standalone="no"?>
<!DOCTYPE svg PUBLIC "-//W3C//DTD SVG 20010904//EN"
 "http://www.w3.org/TR/2001/REC-SVG-20010904/DTD/svg10.dtd">
<svg version="1.0" xmlns="http://www.w3.org/2000/svg"
 width="1024.000000pt" height="1024.000000pt" viewBox="0 0 1024.000000 1024.000000"
 preserveAspectRatio="xMidYMid meet">

<g transform="translate(0.000000,1024.000000) scale(0.100000,-0.100000)"
fill="#000000" stroke="none">
<path d="M2230 8806 c0 -1 -11 -34 -25 -72 -66 -181 -117 -415 -136 -618 -14
-153 -7 -395 15 -516 16 -84 16 -85 -9 -150 -56 -149 -80 -301 -72 -453 11
-205 76 -337 236 -473 141 -121 339 -242 720 -439 183 -95 291 -165 254 -165
-24 0 -195 60 -308 108 -97 41 -357 172 -482 243 -58 32 -108 59 -113 59 -25
0 -60 -381 -60 -655 0 -434 77 -778 244 -1083 179 -327 562 -674 949 -858 l74
-35 -27 -82 c-94 -283 -280 -683 -512 -1100 -158 -285 -236 -387 -308 -407
-20 -5 -78 -14 -129 -19 -111 -12 -181 -41 -249 -105 -62 -58 -102 -131 -109
-199 -4 -44 -1 -58 19 -87 43 -63 50 -64 383 -65 l300 0 52 33 c63 41 168 150
373 388 432 503 1073 1314 1144 1449 29 53 35 87 44 250 l7 119 65 53 c119 96
362 229 554 304 191 74 352 109 511 109 l90 0 34 -107 c61 -195 149 -336 326
-521 285 -300 632 -501 1108 -642 76 -22 199 -58 274 -81 286 -84 347 -125
422 -281 77 -159 171 -454 171 -535 0 -29 -3 -33 -37 -38 -95 -15 -170 -37
-205 -62 -110 -76 -159 -237 -98 -323 44 -62 59 -65 323 -63 268 2 310 10 389
67 33 25 55 53 79 102 29 59 34 79 37 163 4 105 -2 136 -113 596 -30 127 -71
300 -91 385 -53 229 -79 304 -114 334 -16 13 -81 49 -142 79 -184 90 -304 205
-392 377 -88 170 -109 276 -126 630 -5 118 -12 250 -15 294 l-6 78 43 -26 c84
-53 244 -125 331 -150 225 -65 478 -50 662 40 198 97 349 274 414 486 29 95
43 254 32 358 -30 277 -152 527 -450 918 -327 430 -364 489 -395 629 -20 90
-20 143 -1 216 50 191 202 318 440 368 161 34 215 77 215 172 0 115 -132 197
-317 197 -325 -1 -639 -250 -745 -590 -20 -65 -23 -96 -23 -225 0 -178 17
-251 94 -410 60 -123 136 -236 345 -515 203 -272 272 -376 331 -495 74 -152
102 -325 71 -440 -46 -172 -170 -277 -346 -292 -160 -13 -386 91 -592 271 -82
72 -137 131 -310 331 -384 446 -813 676 -1441 771 -160 24 -632 30 -839 10
-246 -23 -556 -73 -589 -94 -15 -9 -112 -74 -216 -144 -223 -150 -530 -314
-550 -294 -2 2 44 39 104 82 600 432 811 636 888 861 19 56 28 107 32 183 8
147 -14 258 -89 470 -1 3 14 55 34 115 93 281 129 496 128 775 0 164 -8 247
-29 327 l-12 42 -112 -69 c-203 -125 -449 -311 -650 -493 l-76 -68 -79 25
c-153 48 -243 61 -432 60 -140 -1 -196 -5 -280 -23 l-104 -22 -117 123 c-134
142 -259 253 -420 375 -149 111 -269 183 -269 159z m540 -1521 c30 -8 71 -18
90 -22 19 -3 37 -9 40 -13 11 -14 94 -49 103 -43 6 3 7 1 3 -5 -3 -6 2 -13 11
-16 41 -13 137 -123 175 -201 32 -63 54 -153 41 -166 -6 -6 -50 -6 -121 1 -61
6 -130 7 -152 4 -32 -5 -45 -3 -62 12 -12 11 -18 13 -14 7 10 -18 -9 -16 -24
2 -7 8 -16 12 -21 10 -4 -3 -6 3 -4 14 3 14 -1 18 -11 14 -8 -3 -14 -2 -13 3
2 5 -25 37 -59 70 -73 74 -115 153 -136 257 -9 42 -16 81 -16 88 0 15 90 6
170 -16z m1630 -24 c0 -43 -30 -171 -50 -213 -32 -69 -122 -163 -183 -192 -57
-27 -187 -49 -257 -44 -34 2 -46 7 -48 21 -6 32 37 152 77 214 22 34 37 63 35
66 -2 2 3 10 13 18 15 12 16 12 8 -1 -4 -8 5 -3 21 11 16 15 47 39 69 54 22
14 40 32 40 38 0 7 14 13 30 13 17 1 55 8 85 17 30 9 79 16 108 16 45 1 52 -2
52 -18z m-630 -729 c0 -5 -42 -53 -94 -108 l-94 -99 -96 95 c-53 52 -96 100
-96 107 0 10 43 13 190 13 105 0 190 -4 190 -8z m1588 -656 c39 -20 82 -69 91
-102 l7 -29 330 -3 329 -2 265 -265 266 -265 56 0 c48 0 58 3 63 21 4 11 25
33 47 50 97 70 236 12 253 -105 10 -63 -20 -127 -74 -158 l-41 -23 0 -455 0
-455 83 -83 c82 -81 83 -82 115 -71 40 14 72 6 110 -26 82 -69 29 -195 -81
-195 -37 0 -51 6 -75 30 -35 34 -47 76 -33 112 9 23 2 33 -85 119 l-94 94 0
467 c0 439 -1 468 -17 468 -44 0 -123 86 -123 133 0 14 -10 17 -68 17 l-67 0
-265 265 -265 265 -312 0 -311 0 -22 -46 c-33 -67 -86 -99 -165 -99 -49 0 -69
5 -98 25 -37 26 -70 75 -81 123 -15 63 37 166 98 193 41 18 130 18 164 0z
m817 -836 c123 -123 166 -160 185 -160 47 0 105 -54 116 -107 9 -47 -3 -82
-40 -119 -43 -43 -92 -52 -143 -28 -87 43 -108 142 -44 208 l31 32 -143 141
-142 141 -294 -1 -294 0 -64 -60 -64 -61 -502 3 -502 3 -237 -238 -238 -238 0
-574 0 -574 -127 -134 c-123 -130 -156 -153 -170 -118 -4 11 31 53 121 143
l126 126 0 580 0 579 247 248 247 248 511 0 511 0 59 60 59 60 316 0 315 0
160 -160z m-980 -224 c18 -14 37 -37 44 -53 l11 -28 328 3 327 2 232 -227 232
-228 -5 -125 -5 -125 284 -277 285 -278 214 0 215 0 13 26 c19 34 59 54 109
54 78 0 129 -86 96 -159 -32 -72 -117 -93 -175 -44 -17 14 -36 37 -41 50 l-9
23 -227 0 -228 0 -292 292 -293 293 0 125 0 125 -207 207 -208 208 -323 0
-322 0 -9 -23 c-36 -95 -187 -104 -241 -14 -36 58 -20 132 36 176 39 31 117
29 159 -3z m1524 -265 c41 -29 65 -84 56 -129 -8 -47 -48 -100 -80 -108 l-25
-6 0 -142 0 -141 89 -89 c85 -85 102 -116 63 -116 -9 0 -58 42 -109 92 l-93
93 0 150 0 150 -33 15 c-72 34 -98 126 -54 191 45 68 123 85 186 40z m-2500
-51 c46 -13 99 -66 111 -110 19 -69 -23 -152 -91 -180 l-29 -12 0 -360 0 -359
-147 -163 c-82 -89 -262 -287 -401 -439 -220 -241 -251 -279 -242 -296 41 -77
-39 -183 -126 -167 -89 17 -124 121 -64 189 33 38 76 52 114 37 22 -8 40 9
244 233 121 133 232 256 247 272 78 84 245 266 282 307 l43 47 0 348 0 348
-43 23 c-75 39 -108 132 -73 200 19 37 58 71 92 82 39 11 44 11 83 0z"/>
<path d="M5211 5784 c-25 -21 -31 -33 -31 -66 0 -50 13 -74 52 -94 68 -35 138
11 138 91 0 36 -5 48 -31 69 -19 17 -43 26 -64 26 -21 0 -45 -9 -64 -26z"/>
<path d="M6874 5226 c-34 -15 -44 -32 -44 -77 0 -59 76 -100 121 -66 42 32 50
84 17 121 -30 32 -56 38 -94 22z"/>
<path d="M7140 3860 c-26 -26 -25 -46 5 -75 29 -30 49 -31 75 -5 27 27 26 65
-2 84 -30 21 -54 20 -78 -4z"/>
<path d="M6291 4794 c-28 -35 -27 -75 2 -102 33 -31 80 -29 106 4 28 35 26 69
-4 99 -33 34 -77 33 -104 -1z"/>
<path d="M5078 4774 c-75 -40 -25 -159 57 -138 68 17 73 108 8 142 -27 15 -32
15 -65 -4z"/>
<path d="M7423 3474 c-15 -24 -15 -29 -2 -53 11 -20 22 -26 49 -26 27 0 38 6
49 26 13 24 13 29 -2 53 -12 18 -26 26 -47 26 -21 0 -35 -8 -47 -26z"/>
<path d="M6613 4510 c-49 -20 -59 -96 -17 -129 35 -28 69 -26 99 4 40 39 32
96 -16 120 -32 17 -35 17 -66 5z"/>
<path d="M4121 4404 c-45 -57 -11 -134 60 -134 59 0 86 32 79 95 -6 63 -100
89 -139 39z"/>
<path d="M3282 2574 c-42 -29 -18 -104 35 -104 49 0 72 76 31 104 -12 9 -27
16 -33 16 -6 0 -21 -7 -33 -16z"/>
<path d="M5566 4249 c-222 -33 -562 -152 -673 -235 l-31 -24 19 -52 c41 -110
148 -317 214 -413 97 -142 157 -215 300 -365 189 -199 215 -260 160 -379 -51
-109 -297 -388 -452 -512 -92 -74 -115 -81 -293 -88 -182 -7 -218 -20 -298
-105 -73 -77 -96 -127 -97 -209 0 -64 2 -70 29 -94 l30 -25 330 7 c372 8 354
5 462 91 240 194 571 491 807 724 203 200 267 274 267 312 0 10 -22 59 -50
110 -147 272 -220 454 -220 544 0 27 -16 52 -87 138 -150 179 -241 345 -281
507 -21 84 -22 85 -136 68z"/>
<path d="M2540 4148 c-46 -50 -204 -204 -350 -342 -432 -408 -473 -453 -516
-571 -30 -83 -26 -246 10 -365 37 -127 83 -224 161 -341 73 -109 146 -181 220
-215 106 -50 192 -40 261 30 99 98 81 234 -60 455 -80 126 -96 164 -96 223 0
105 51 152 295 275 278 140 492 272 657 403 31 25 59 51 62 57 3 8 -30 37 -84
73 -114 76 -248 188 -376 312 l-100 97 -84 -91z"/>
</g>
</svg>
