<?xml version="1.0" standalone="no"?>
<!DOCTYPE svg PUBLIC "-//W3C//DTD SVG 20010904//EN"
 "http://www.w3.org/TR/2001/REC-SVG-20010904/DTD/svg10.dtd">
<svg version="1.0" xmlns="http://www.w3.org/2000/svg"
 width="1024.000000pt" height="1024.000000pt" viewBox="0 0 1024.000000 1024.000000"
 preserveAspectRatio="xMidYMid meet">

<g transform="translate(0.000000,1024.000000) scale(0.100000,-0.100000)"
fill="#000000" stroke="none">
<path d="M2087 8425 c-110 -284 -210 -698 -257 -1064 -40 -320 -45 -410 -44
-821 0 -444 8 -553 65 -912 l31 -196 -30 -79 c-77 -203 -163 -550 -138 -559
10 -3 546 -92 757 -124 l76 -12 74 -195 c71 -188 73 -196 54 -209 -13 -10 -22
-11 -29 -4 -6 6 -40 88 -76 182 l-65 172 -405 67 c-223 37 -406 67 -406 66 -6
-6 -24 -247 -24 -308 l0 -76 143 -16 c78 -8 249 -28 380 -43 l239 -28 374
-369 374 -369 162 -44 c90 -24 177 -49 193 -54 18 -6 93 -73 184 -164 133
-134 153 -157 142 -170 -8 -9 -18 -16 -25 -16 -6 0 -76 65 -156 145 l-145 144
-165 46 c-91 25 -179 52 -197 58 -19 7 -142 121 -306 282 -151 149 -316 312
-368 362 l-95 93 -169 20 c-94 11 -257 31 -364 45 -107 14 -195 24 -196 23 -6
-7 15 -216 30 -294 16 -87 61 -243 73 -256 4 -3 167 -9 362 -12 l354 -5 211
-210 210 -211 170 -2 170 -3 0 -25 0 -25 -180 -3 -180 -2 -215 215 -215 215
-328 0 -328 0 6 -22 c8 -25 42 -88 87 -160 l30 -48 251 0 251 0 180 -180 180
-180 250 10 c138 5 269 10 291 10 37 0 41 3 57 40 21 51 68 80 132 80 43 0 53
-4 86 -38 50 -50 59 -94 31 -156 -16 -38 -29 -51 -67 -67 -65 -29 -107 -20
-162 38 l-43 45 -237 -6 c-130 -4 -265 -9 -298 -12 l-62 -5 -183 180 -184 181
-212 0 c-117 0 -213 -3 -213 -6 0 -4 25 -38 56 -75 72 -88 255 -264 375 -361
101 -81 277 -208 288 -208 3 1 30 32 60 71 l54 69 336 -2 336 -3 0 -25 0 -25
-320 -2 -320 -2 -47 -52 c-27 -29 -48 -56 -48 -61 0 -13 217 -151 410 -261
182 -103 248 -139 823 -447 183 -99 326 -183 395 -233 133 -98 223 -151 329
-194 326 -133 701 -119 1017 39 95 48 133 72 251 160 50 36 196 128 325 204
389 226 645 401 950 645 180 144 177 141 153 173 l-18 25 -311 1 c-325 0 -356
4 -341 44 6 14 40 16 341 16 l334 0 31 -36 32 -35 37 30 c113 89 492 509 492
544 0 4 -44 7 -98 7 l-97 0 -175 -176 -175 -176 -297 6 c-290 6 -297 6 -303
-13 -9 -30 -59 -68 -99 -75 -45 -9 -117 21 -141 58 -60 92 3 219 108 219 59 0
107 -29 131 -79 l20 -41 119 -7 c66 -3 193 -6 281 -6 l161 0 174 175 175 175
132 0 133 0 56 113 57 112 -208 3 -208 2 -216 -215 -216 -215 -179 2 -180 3 0
25 0 25 167 3 166 2 219 215 218 215 231 0 231 0 27 87 c27 88 59 257 71 372
l6 63 -33 -5 c-18 -4 -116 -16 -218 -28 l-185 -21 -365 -364 -365 -363 -196
-53 -197 -54 -146 -144 c-81 -80 -152 -146 -160 -148 -7 -2 -19 4 -26 13 -12
15 5 35 146 174 l159 157 193 53 192 53 289 287 c158 157 324 321 368 364 l80
78 209 25 c115 13 220 27 233 30 l24 5 -6 162 c-3 89 -9 170 -13 181 -8 22
-38 20 -319 -28 l-190 -31 -28 -70 c-15 -39 -46 -119 -70 -179 -23 -60 -47
-111 -52 -113 -6 -2 -19 3 -28 10 -17 12 -13 26 56 207 l74 195 272 45 273 44
-7 46 c-17 119 -102 399 -176 577 -12 30 -8 45 59 245 210 627 314 1323 299
1998 -8 331 -41 613 -96 818 l-12 43 -77 -42 c-181 -99 -452 -274 -666 -429
-435 -317 -805 -623 -1187 -982 l-157 -147 -78 28 c-91 33 -273 86 -277 80 -1
-2 -1 -74 1 -160 l3 -157 30 -12 c73 -31 103 -141 56 -211 -80 -120 -261 -64
-261 81 0 58 20 92 77 129 l37 24 0 163 0 162 -77 17 c-42 10 -112 23 -155 30
l-78 12 0 -606 0 -606 35 -19 c45 -24 80 -93 72 -142 -8 -46 -39 -88 -81 -108
-45 -21 -79 -20 -127 5 -51 26 -83 90 -73 145 8 43 56 102 90 110 l24 6 0 608
c0 335 -3 611 -7 613 -5 3 -43 8 -85 12 l-78 7 0 -456 c0 -398 -2 -457 -15
-462 -8 -4 -22 -1 -30 6 -13 11 -15 77 -15 467 l0 454 -82 -3 -83 -3 -3 -463
-2 -463 -23 3 -22 3 -5 460 -5 460 -85 -3 c-47 -2 -85 -5 -85 -5 0 -1 1 -279
3 -617 l3 -615 32 -15 c67 -31 97 -123 62 -190 -50 -97 -194 -97 -247 0 -36
66 -5 162 62 190 l30 12 -2 617 -3 616 -30 -3 c-16 -1 -87 -10 -157 -19 l-128
-16 0 -232 0 -233 24 -6 c36 -9 83 -69 91 -115 19 -116 -119 -204 -222 -141
-90 55 -82 205 14 250 l33 15 0 223 0 224 -42 -7 c-24 -4 -101 -22 -173 -40
-71 -18 -135 -30 -141 -26 -6 3 -48 49 -94 101 -120 136 -483 496 -632 626
-267 234 -506 419 -769 596 -177 120 -392 248 -414 248 -6 0 -27 -43 -48 -95z
m1831 -1694 c85 -60 72 -200 -23 -245 l-35 -17 0 -560 c0 -510 -1 -560 -16
-566 -42 -16 -44 1 -37 577 l6 546 -46 27 c-98 58 -99 188 -2 249 39 25 110
20 153 -11z m2603 14 c71 -37 94 -154 43 -215 -15 -17 -39 -37 -55 -46 l-29
-14 -2 -563 -3 -562 -25 0 -25 0 -3 565 -3 565 -31 15 c-45 21 -70 61 -75 117
-9 110 109 189 208 138z m-3104 -512 c99 -46 97 -203 -2 -250 l-35 -17 0 -256
0 -256 73 -89 c39 -48 79 -92 87 -96 8 -4 125 -38 259 -74 134 -36 249 -69
256 -73 7 -4 148 -140 314 -302 l301 -295 0 -302 c0 -290 1 -302 19 -308 11
-3 33 -21 49 -39 81 -92 21 -229 -99 -229 -143 0 -185 178 -61 258 l31 20 0
286 0 287 -292 288 -292 289 -250 68 c-137 37 -255 67 -262 67 -7 0 -53 51
-102 113 l-90 112 -1 267 0 266 -34 20 c-95 56 -98 178 -7 239 40 27 90 29
138 6z m3594 -13 c51 -37 73 -113 48 -163 -17 -33 -51 -68 -76 -78 l-23 -9 0
-267 0 -268 -40 -50 c-22 -27 -58 -73 -80 -102 -22 -29 -48 -57 -58 -62 -17
-9 -153 -47 -422 -118 l-95 -25 -286 -285 -286 -285 -7 -198 c-4 -109 -4 -243
0 -297 6 -96 7 -98 37 -113 16 -9 38 -31 49 -50 49 -92 -12 -203 -112 -203
-74 0 -140 65 -140 139 0 38 34 91 77 120 l32 21 0 302 0 301 301 298 c166
163 309 300 318 304 9 4 127 36 262 73 134 36 245 67 245 68 1 1 34 41 73 89
l72 87 0 259 0 260 -35 21 c-52 30 -77 76 -72 130 12 110 128 164 218 101z
m-2754 -85 c86 -57 79 -188 -12 -232 l-35 -17 0 -215 0 -216 335 -335 335
-335 0 -206 0 -205 33 -16 c38 -18 67 -69 67 -118 0 -73 -61 -130 -139 -130
-37 0 -49 6 -81 38 -68 69 -59 159 23 211 l37 24 0 191 0 190 -335 336 -335
335 0 227 0 226 -35 21 c-63 37 -83 121 -42 182 43 65 122 84 184 44z m1930 0
c32 -22 63 -74 63 -108 0 -44 -28 -94 -66 -118 l-34 -21 0 -226 0 -227 -335
-335 -335 -335 0 -192 0 -192 29 -16 c70 -36 95 -106 63 -178 -23 -52 -62 -77
-119 -77 -139 0 -184 188 -60 251 l37 19 0 208 0 208 330 329 330 330 0 215 0
215 -37 20 c-45 25 -78 91 -69 140 18 94 124 141 203 90z m-1658 -173 c95 -51
91 -197 -6 -242 -32 -15 -33 -17 -33 -80 l0 -66 239 -241 c208 -208 245 -241
277 -246 69 -11 122 -86 110 -153 -17 -87 -111 -136 -189 -99 -86 40 -103 166
-32 225 15 13 -8 38 -224 250 l-241 237 0 86 c0 65 -3 87 -13 87 -21 0 -66 53
-77 90 -10 36 0 92 23 121 19 24 69 48 102 49 17 0 46 -8 64 -18z m1358 -1
c25 -12 48 -32 57 -50 34 -66 9 -153 -54 -186 -30 -15 -30 -16 -30 -99 l0 -84
-237 -236 -237 -235 23 -25 c46 -49 45 -134 -1 -183 -78 -84 -228 -23 -228 93
0 69 59 134 122 134 17 0 89 66 262 238 l239 238 1 72 c1 64 -1 73 -19 78 -34
10 -75 56 -86 96 -8 31 -6 46 9 81 21 48 39 65 79 77 42 12 54 11 100 -9z
m-2868 -509 c42 -23 71 -73 72 -127 1 -38 5 -44 96 -118 92 -76 98 -80 192
-102 154 -37 358 -108 461 -160 152 -76 264 -158 407 -298 125 -122 135 -134
160 -203 25 -65 31 -74 53 -74 32 0 84 -32 105 -64 23 -35 22 -112 -2 -145
-29 -39 -81 -63 -123 -57 -19 3 -44 7 -55 8 -11 2 -23 8 -27 13 -14 19 -8 -9
21 -96 16 -47 35 -112 42 -144 19 -85 12 -88 -166 -82 -77 2 -129 1 -115 -3
20 -5 14 -8 -30 -14 -112 -16 -168 -19 -298 -18 -106 1 -136 5 -149 17 -11 12
-19 13 -28 5 -9 -7 -15 -8 -20 -1 -3 6 -24 15 -45 21 -22 6 -40 15 -40 20 0 6
-7 10 -15 10 -8 0 -23 9 -32 20 -10 11 -23 20 -29 20 -7 0 -33 16 -58 35 -26
19 -50 35 -56 35 -5 0 -14 9 -20 20 -6 11 -16 17 -22 14 -6 -4 -8 -3 -5 3 4 6
-9 27 -29 47 -19 20 -40 50 -46 67 -6 16 -12 28 -15 25 -8 -7 -42 27 -36 37 3
5 -4 15 -15 23 -12 8 -19 21 -16 28 3 8 -3 17 -14 20 -11 4 -27 26 -37 54 -10
26 -22 52 -27 58 -10 13 -7 106 4 114 9 7 -12 81 -21 76 -3 -2 -7 14 -8 37 -1
25 -8 46 -18 53 -12 9 -13 13 -3 17 10 4 10 8 -2 16 -12 8 -14 32 -12 118 2
59 7 112 11 116 9 10 167 -6 262 -26 35 -7 82 -12 104 -11 146 10 219 5 291
-18 40 -12 74 -28 74 -34 0 -6 27 -19 59 -29 32 -9 72 -29 87 -42 18 -16 22
-23 11 -19 -11 3 -15 2 -12 -4 3 -6 19 -10 34 -10 39 0 87 -45 71 -65 -7 -8
-16 -12 -21 -9 -5 3 -9 1 -9 -4 0 -18 13 -21 39 -8 30 15 51 11 51 -10 0 -8 5
-14 10 -14 6 0 10 -7 10 -15 0 -8 4 -15 10 -15 5 0 20 -11 33 -24 14 -14 27
-23 30 -20 2 3 8 -7 11 -21 4 -14 10 -23 15 -21 5 3 14 -1 21 -9 7 -8 9 -15 6
-15 -4 0 -1 -6 6 -14 7 -8 16 -12 21 -9 10 6 9 -11 -3 -42 -9 -24 -8 -26 10
-20 15 5 23 0 31 -22 7 -15 11 -37 11 -47 -1 -24 25 -76 38 -76 6 0 10 13 10
28 0 16 13 47 29 69 l29 40 -30 71 c-26 63 -42 84 -138 175 -243 233 -410 323
-798 430 l-160 44 -88 75 c-49 41 -94 77 -100 81 -6 3 -28 -3 -50 -13 -47 -25
-58 -25 -111 -1 -50 23 -73 62 -73 125 0 98 101 155 189 108z m4372 1 c41 -25
73 -93 64 -140 -9 -48 -60 -99 -110 -109 -29 -5 -48 -2 -82 15 l-44 21 -99
-82 c-95 -80 -102 -84 -192 -107 -167 -42 -369 -113 -472 -165 -133 -68 -236
-145 -376 -282 -99 -98 -119 -122 -142 -179 l-28 -67 26 -34 c57 -74 36 -171
-43 -206 -58 -25 -108 -16 -149 28 -17 18 -35 49 -38 69 -14 72 52 155 121
155 15 0 29 21 58 85 34 78 47 95 147 190 252 241 454 351 843 455 117 31 123
34 217 109 79 61 98 81 97 101 -2 60 3 80 28 110 14 18 36 36 47 40 35 15 96
11 127 -7z m-5011 -359 c50 -20 80 -61 88 -120 l7 -45 149 -87 c82 -48 153
-94 157 -102 4 -8 19 -60 34 -115 15 -55 54 -197 87 -315 l60 -215 46 -43
c149 -139 291 -222 595 -348 l127 -52 29 28 c64 65 174 41 212 -45 63 -141
-106 -259 -215 -150 -22 22 -36 48 -41 73 l-6 39 -122 48 c-166 66 -366 166
-446 223 -36 26 -102 78 -146 116 -93 79 -81 50 -201 488 l-67 246 -116 66
c-64 36 -127 73 -141 82 -25 15 -28 15 -65 -11 -121 -82 -271 68 -190 191 16
24 85 63 112 64 7 0 31 -7 53 -16z m5640 -12 c38 -28 62 -80 56 -126 -13 -106
-133 -159 -218 -96 l-29 21 -144 -82 -144 -82 -31 -116 c-46 -171 -120 -438
-137 -498 -12 -46 -24 -61 -91 -119 -149 -129 -335 -235 -604 -345 -103 -42
-108 -45 -108 -74 0 -64 -67 -125 -137 -125 -64 0 -133 73 -133 141 0 76 83
148 156 135 19 -4 49 -20 67 -36 36 -32 25 -34 160 29 37 17 70 31 73 31 3 0
69 31 147 69 139 67 250 141 353 234 48 44 52 52 78 146 82 304 157 566 164
569 39 14 297 173 299 183 13 96 40 141 96 158 42 13 96 6 127 -17z m-811
-211 c19 -12 9 -143 -22 -279 -14 -60 -20 -105 -14 -109 5 -3 6 -17 3 -32 -3
-14 -9 -48 -12 -76 -3 -27 -8 -52 -12 -55 -4 -3 -7 -9 -7 -15 -1 -26 -18 -75
-26 -75 -5 0 -9 -9 -9 -19 0 -11 -4 -22 -9 -26 -6 -3 -20 -26 -32 -51 -14 -26
-28 -43 -35 -40 -8 3 -11 -1 -7 -10 4 -10 -12 -32 -46 -63 -28 -26 -51 -52
-51 -58 0 -6 -9 -13 -20 -16 -11 -3 -20 -13 -20 -22 0 -9 -4 -14 -9 -11 -5 3
-20 -5 -32 -19 -13 -13 -29 -25 -35 -25 -6 0 -17 -7 -24 -15 -7 -8 -21 -15
-31 -15 -11 0 -19 -7 -19 -15 0 -12 -61 -33 -82 -27 -5 1 -8 -2 -8 -8 0 -5 -7
-7 -15 -4 -8 4 -22 1 -30 -6 -12 -10 -18 -10 -29 -1 -9 8 -16 9 -21 2 -8 -14
-314 -6 -328 8 -7 7 -62 11 -137 11 -85 0 -130 4 -138 12 -18 18 -14 72 13
173 20 79 21 91 8 102 -12 9 -14 47 -4 81 1 2 8 -4 17 -12 8 -9 12 -20 9 -26
-3 -5 -2 -10 3 -10 6 0 14 21 19 48 6 28 14 46 21 44 9 -2 10 3 4 15 -11 21 9
88 22 76 5 -5 6 0 3 10 -4 10 -4 30 -1 44 7 25 8 25 20 8 13 -17 14 -15 12 21
-1 41 15 84 32 84 6 0 10 5 10 11 0 16 66 80 74 72 3 -4 6 1 6 10 0 9 9 22 20
29 11 7 20 18 20 25 0 12 6 14 26 13 3 -1 15 13 27 31 12 18 29 35 37 39 66
32 126 64 130 69 9 12 95 49 140 61 25 7 70 14 100 15 30 1 62 5 71 9 10 4 23
1 32 -8 17 -17 32 -22 23 -7 -3 4 34 11 82 16 99 8 242 21 257 23 6 1 16 -2
24 -7z m-3216 -1118 c-13 -2 -33 -2 -45 0 -13 2 -3 4 22 4 25 0 35 -2 23 -4z
m1648 -709 c6 -7 8 -21 5 -31 -3 -10 -104 -120 -224 -243 -196 -201 -220 -223
-243 -217 -29 7 -459 449 -459 472 0 7 8 19 18 25 25 15 887 9 903 -6z"/>
<path d="M3800 6687 c-77 -39 -51 -151 35 -151 88 0 112 116 30 149 -41 18
-34 18 -65 2z"/>
<path d="M6399 6671 c-34 -34 -37 -68 -9 -104 60 -76 170 -6 134 88 -7 18 -55
45 -79 45 -9 0 -30 -13 -46 -29z"/>
<path d="M3308 6171 c-34 -27 -42 -63 -24 -100 38 -72 146 -48 146 33 0 68
-70 107 -122 67z"/>
<path d="M4610 3853 c-44 -18 -56 -101 -18 -127 24 -17 75 -21 95 -8 23 15 35
64 22 94 -17 42 -55 58 -99 41z"/>
<path d="M6904 6180 c-28 -11 -54 -48 -54 -78 0 -33 43 -72 78 -72 66 0 103
75 60 123 -27 30 -55 39 -84 27z"/>
<path d="M5605 3835 c-30 -30 -32 -64 -4 -99 20 -26 69 -36 95 -18 16 11 34
48 34 72 0 29 -44 70 -75 70 -14 0 -37 -11 -50 -25z"/>
<path d="M4136 6077 c-51 -51 -22 -127 49 -127 94 0 102 128 8 146 -26 5 -37
1 -57 -19z"/>
<path d="M4814 4309 c-22 -11 -44 -48 -44 -75 0 -8 11 -26 25 -39 49 -50 125
-20 125 48 0 54 -58 89 -106 66z"/>
<path d="M6065 6075 c-32 -31 -33 -74 -2 -103 72 -67 172 34 102 103 -13 14
-36 25 -50 25 -14 0 -37 -11 -50 -25z"/>
<path d="M5423 4310 c-45 -18 -57 -81 -23 -118 30 -32 82 -30 109 4 28 36 26
60 -8 95 -31 31 -42 33 -78 19z"/>
<path d="M4419 5901 c-29 -23 -31 -81 -4 -111 24 -26 85 -27 108 -2 27 30 22
87 -9 111 -33 26 -65 27 -95 2z"/>
<path d="M4932 5007 c-30 -31 -28 -72 4 -104 20 -20 31 -24 57 -19 44 9 61 29
61 72 0 67 -77 99 -122 51z"/>
<path d="M5781 5903 c-11 -10 -24 -32 -27 -50 -5 -26 -1 -37 19 -57 51 -51
127 -22 127 49 0 64 -70 98 -119 58z"/>
<path d="M5260 5010 c-30 -30 -27 -83 6 -109 30 -24 43 -26 78 -10 33 15 50
57 37 92 -19 48 -85 63 -121 27z"/>
<path d="M2905 5385 c-28 -27 -30 -42 -14 -78 14 -31 47 -47 82 -40 56 11 75
82 34 121 -31 29 -72 28 -102 -3z"/>
<path d="M3698 4793 c7 -3 16 -2 19 1 4 3 -2 6 -13 5 -11 0 -14 -3 -6 -6z"/>
<path d="M4410 4290 c-45 -45 -18 -120 44 -120 53 0 79 34 65 86 -14 50 -74
69 -109 34z"/>
<path d="M3120 4255 c0 -8 5 -15 10 -15 6 0 10 7 10 15 0 8 -4 15 -10 15 -5 0
-10 -7 -10 -15z"/>
<path d="M7270 5390 c-49 -49 -3 -139 65 -126 61 12 83 71 44 120 -26 33 -79
36 -109 6z"/>
<path d="M5789 4292 c-47 -39 -17 -122 45 -122 37 0 49 7 65 37 17 33 14 51
-14 78 -29 30 -64 32 -96 7z"/>
<path d="M2271 5014 c-12 -15 -21 -38 -21 -51 0 -34 42 -73 80 -73 38 0 80 39
80 73 0 42 -36 77 -80 77 -30 0 -43 -6 -59 -26z"/>
<path d="M3800 3630 c-26 -26 -26 -81 -1 -104 28 -26 80 -24 103 4 56 69 -39
163 -102 100z"/>
<path d="M7903 5038 c-76 -37 -27 -161 57 -143 62 14 78 78 31 126 -31 30 -52
35 -88 17z"/>
<path d="M6385 3625 c-33 -32 -31 -60 5 -97 25 -24 36 -29 58 -24 34 9 62 41
62 73 0 32 -42 73 -75 73 -14 0 -37 -11 -50 -25z"/>
<path d="M6570 4790 c0 -5 5 -10 11 -10 5 0 7 5 4 10 -3 6 -8 10 -11 10 -2 0
-4 -4 -4 -10z"/>
<path d="M6410 4710 c0 -5 5 -10 11 -10 5 0 7 5 4 10 -3 6 -8 10 -11 10 -2 0
-4 -4 -4 -10z"/>
<path d="M6240 4551 c0 -5 7 -12 16 -15 24 -9 28 -7 14 9 -14 17 -30 20 -30 6z"/>
<path d="M6091 4314 c0 -11 3 -14 6 -6 3 7 2 16 -1 19 -3 4 -6 -2 -5 -13z"/>
<path d="M5801 6574 c-46 -59 -11 -134 61 -134 28 0 42 7 57 26 25 31 26 55 6
93 -25 50 -91 57 -124 15z"/>
<path d="M4371 6484 c-28 -36 -27 -79 4 -109 50 -51 135 -17 135 54 0 76 -94
112 -139 55z"/>
<path d="M4757 5762 c-49 -54 -18 -132 53 -132 30 0 43 6 59 26 43 54 10 124
-58 124 -24 0 -44 -7 -54 -18z"/>
<path d="M5432 5760 c-33 -31 -31 -94 4 -116 74 -49 158 20 118 97 -22 44 -84
54 -122 19z"/>
<path d="M3466 3149 c-50 -39 -26 -122 40 -135 44 -8 88 30 86 76 -2 69 -72
102 -126 59z"/>
<path d="M6671 3144 c-27 -35 -26 -66 2 -100 33 -38 81 -37 115 1 18 22 22 35
18 59 -13 66 -96 90 -135 40z"/>
</g>
</svg>
