<?xml version="1.0" standalone="no"?>
<!DOCTYPE svg PUBLIC "-//W3C//DTD SVG 20010904//EN"
 "http://www.w3.org/TR/2001/REC-SVG-20010904/DTD/svg10.dtd">
<svg version="1.0" xmlns="http://www.w3.org/2000/svg"
 width="825.000000pt" height="834.000000pt" viewBox="0 0 825.000000 834.000000"
 preserveAspectRatio="xMidYMid meet">

<g transform="translate(0.000000,834.000000) scale(0.100000,-0.100000)"
fill="#000000" stroke="none">
<path d="M0 4170 l0 -4170 4125 0 4125 0 0 4170 0 4170 -4125 0 -4125 0 0
-4170z m4488 3968 c94 -6 172 -14 172 -18 0 -4 -14 -5 -30 -2 -24 3 -29 1 -24
-11 3 -8 14 -17 25 -20 12 -3 22 -17 25 -36 5 -21 12 -31 25 -31 11 0 19 -5
19 -12 0 -7 12 -25 28 -41 15 -17 21 -27 15 -23 -7 4 -13 2 -13 -3 0 -6 5 -11
10 -11 20 0 25 -2 38 -12 7 -6 10 -18 7 -27 -3 -8 -3 -12 1 -8 4 4 13 -1 21
-11 8 -9 11 -11 7 -3 -5 9 -3 12 5 7 6 -4 9 -11 6 -16 -7 -12 25 -50 42 -50 7
0 13 -4 13 -9 0 -12 53 -66 62 -63 4 1 7 -1 6 -5 -3 -15 14 -43 27 -43 7 0 20
-12 30 -26 16 -25 16 -26 -4 -19 -13 4 -21 2 -21 -5 0 -6 5 -8 10 -5 6 3 10 2
10 -4 0 -5 10 -13 21 -16 17 -6 19 -9 8 -16 -11 -7 -10 -9 4 -9 9 0 18 -6 18
-12 4 -37 18 -69 38 -86 9 -7 12 -12 6 -11 -22 3 -29 -2 -17 -10 8 -5 15 -20
15 -34 1 -14 5 -23 8 -21 12 7 31 -25 25 -41 -3 -8 -1 -15 4 -15 6 0 10 -9 10
-20 0 -14 7 -20 24 -20 13 0 29 -7 36 -15 7 -8 17 -12 23 -8 6 3 7 1 3 -5 -4
-7 9 -13 36 -16 91 -12 100 -14 33 -8 -38 3 -207 6 -375 7 -290 0 -367 -5
-545 -36 -116 -20 -339 -74 -367 -90 -10 -5 -27 -9 -37 -9 -11 0 -23 -4 -26
-10 -3 -5 -16 -10 -29 -10 -12 0 -26 -4 -32 -8 -5 -5 -31 -17 -59 -27 -95 -34
-268 -116 -360 -170 -33 -19 -67 -38 -75 -42 -46 -24 -256 -176 -330 -239
-265 -225 -496 -557 -596 -854 -10 -30 -22 -59 -26 -64 -4 -6 -8 -20 -8 -32 0
-13 -4 -25 -9 -28 -5 -3 -11 -20 -14 -38 -3 -18 -17 -91 -32 -163 -27 -133
-48 -408 -39 -510 15 -170 38 -320 54 -360 5 -11 11 -31 13 -45 13 -67 87
-283 100 -288 4 -2 7 -9 7 -16 0 -19 135 -278 161 -310 5 -6 31 -41 57 -77 52
-73 117 -151 175 -211 20 -22 34 -44 31 -50 -4 -6 -3 -8 3 -5 10 6 40 -16 114
-80 20 -18 40 -33 43 -33 4 0 13 -6 21 -12 30 -29 56 -48 65 -48 6 0 10 -4 10
-10 0 -5 6 -10 14 -10 8 0 16 -7 20 -15 3 -8 13 -15 21 -15 12 0 15 -6 11 -22
-3 -13 -3 -17 0 -10 8 17 44 15 44 -3 0 -8 7 -15 16 -15 19 0 107 -41 112 -52
2 -5 15 -8 28 -8 13 0 24 -4 24 -10 0 -5 9 -10 19 -10 11 0 22 -4 25 -8 3 -5
32 -17 65 -28 34 -10 61 -22 61 -26 0 -5 11 -8 25 -8 14 0 33 -4 43 -9 20 -11
56 -18 307 -60 33 -6 4 -7 -85 -3 -88 3 -142 10 -156 19 -11 7 -41 16 -65 19
-24 4 -45 10 -47 15 -2 5 -8 9 -13 9 -6 0 -7 -5 -4 -11 5 -7 -10 -8 -47 -4
-29 4 -62 7 -73 9 -11 1 -24 4 -30 7 -5 3 -28 7 -50 8 -70 5 -79 7 -130 25
-58 21 -68 24 -76 22 -3 0 -13 7 -23 16 -10 10 -25 18 -35 18 -10 0 -32 7 -50
16 -17 9 -37 17 -44 18 -7 1 -22 8 -35 15 -13 7 -30 10 -37 7 -7 -2 -19 2 -25
10 -7 8 -22 14 -34 14 -11 0 -32 9 -46 20 -14 11 -31 20 -38 20 -7 0 -29 10
-50 23 -20 12 -50 29 -67 37 -16 8 -32 17 -35 20 -17 20 -136 105 -143 102 -4
-1 -10 5 -14 14 -3 8 -15 20 -27 25 -42 20 -66 36 -96 67 -17 18 -35 32 -40
32 -6 0 -10 6 -10 13 -1 6 -37 41 -82 77 -44 36 -92 81 -106 100 -14 19 -37
46 -52 60 -15 14 -39 45 -55 70 -16 25 -41 59 -56 75 -16 17 -29 35 -30 40 -1
6 -10 19 -20 30 -48 53 -93 113 -105 140 -7 17 -13 26 -14 20 0 -5 -13 11 -28
37 -69 119 -87 152 -88 160 -1 4 -3 10 -4 13 -1 3 -3 8 -5 13 -1 4 -5 14 -8
22 -4 8 -8 24 -10 35 -2 11 -11 37 -21 57 -10 20 -19 42 -20 50 -1 7 -7 23
-14 35 -7 12 -12 27 -12 32 0 6 -12 35 -26 64 -33 68 -54 127 -54 154 0 32
-26 103 -75 209 -24 51 -46 108 -49 126 -3 18 -11 68 -18 111 -7 42 -16 77
-20 77 -4 0 -7 8 -7 18 0 9 -2 35 -6 57 -3 22 -8 51 -9 63 -2 13 -7 27 -12 30
-13 10 -18 56 -5 48 6 -4 11 -2 11 3 0 6 -5 11 -11 11 -5 0 -7 5 -3 12 4 7 3
8 -4 4 -7 -4 -12 -14 -12 -21 0 -9 -6 -12 -15 -9 -8 4 -15 1 -15 -7 0 -7 -3
-10 -6 -6 -3 3 -3 15 1 28 5 14 10 18 14 10 5 -7 12 -2 20 15 11 24 10 26 -3
14 -29 -23 -19 28 35 180 28 80 53 154 56 165 3 11 9 25 13 30 4 6 13 28 20
50 25 78 149 332 233 477 30 53 158 239 198 290 24 30 66 84 94 119 48 61 256
275 321 330 17 15 80 63 140 108 60 44 114 86 121 91 7 6 17 10 23 10 5 0 10
5 10 10 0 6 7 10 15 10 8 0 15 3 15 8 0 4 21 18 48 32 26 13 49 27 52 31 3 3
41 23 85 45 44 21 82 42 83 47 2 4 8 7 13 7 5 0 46 18 92 39 101 48 247 107
287 116 16 4 32 11 35 16 4 5 19 9 35 9 16 0 32 5 35 10 3 6 17 10 30 10 13 0
27 5 30 10 3 6 19 10 35 10 16 0 31 4 34 9 3 5 23 11 43 14 21 3 58 10 83 16
25 6 68 15 95 20 28 5 79 14 115 21 51 9 251 29 405 39 11 1 98 -4 193 -11z
m291 -34 c9 -8 -55 -2 -74 6 -13 6 -5 7 25 3 25 -3 47 -7 49 -9z m54 -11 c-7
-2 -21 -2 -30 0 -10 3 -4 5 12 5 17 0 24 -2 18 -5z m-2495 -436 c-86 -74 -122
-108 -201 -185 -97 -94 -264 -277 -299 -327 -4 -5 -27 -33 -51 -61 -24 -29
-66 -83 -93 -120 -26 -38 -51 -71 -54 -74 -3 -3 -21 -30 -40 -60 -19 -30 -37
-57 -41 -60 -13 -10 -132 -216 -176 -304 -25 -50 -49 -92 -54 -94 -5 -2 -9
-12 -9 -23 0 -10 -4 -19 -9 -19 -5 0 -12 -10 -14 -22 -4 -20 -4 -20 -6 4 0 14
5 29 12 31 6 3 2 6 -10 6 -28 1 -38 18 -23 36 7 8 10 16 6 16 -3 1 -9 2 -13 3
-25 5 -53 29 -53 45 0 12 -13 22 -41 30 -36 11 -39 14 -27 28 11 15 11 16 -4
10 -11 -4 -18 -2 -18 5 0 7 -11 23 -24 37 l-25 26 32 36 c18 20 49 56 70 80
49 56 276 286 354 359 66 62 101 93 188 165 33 28 62 52 65 55 5 5 96 78 115
92 6 4 24 18 40 31 64 51 243 176 305 213 36 21 67 41 70 44 11 11 45 27 50
23 2 -2 -7 -14 -22 -26z m-1262 -1099 c4 -7 3 -8 -5 -4 -6 4 -14 0 -17 -8 -3
-9 -10 -16 -15 -16 -5 0 -4 9 3 20 15 23 24 25 34 8z m3824 -20 c0 -4 14 -6
30 -4 17 2 30 0 30 -4 0 -4 18 -10 39 -13 22 -3 64 -17 95 -31 30 -14 64 -27
76 -29 12 -2 26 -10 31 -18 5 -8 9 -10 9 -6 0 5 13 -1 30 -13 16 -12 35 -18
41 -14 8 5 9 3 4 -6 -6 -10 -4 -12 9 -7 9 4 15 3 12 -2 -6 -10 52 -37 71 -33
6 1 23 -9 37 -23 15 -15 31 -22 40 -19 10 4 16 1 16 -7 0 -14 61 -59 78 -59 5
0 15 -11 22 -25 7 -13 16 -23 19 -23 16 4 57 -17 74 -38 10 -13 25 -24 33 -24
8 0 14 -5 14 -11 0 -6 7 -8 16 -5 13 5 15 1 12 -19 -5 -24 1 -29 30 -26 6 1
12 -4 12 -12 0 -23 22 -38 37 -26 12 11 18 1 14 -24 -1 -4 5 -15 14 -23 8 -9
15 -13 15 -9 0 11 49 -27 55 -43 3 -10 23 -25 46 -34 22 -10 38 -21 35 -26 -3
-5 3 -20 14 -32 11 -12 17 -27 14 -32 -3 -5 3 -12 14 -15 11 -2 25 -16 31 -29
6 -14 15 -23 20 -19 5 3 12 -4 16 -15 6 -19 16 -24 42 -21 8 1 10 -5 7 -14 -3
-8 -10 -12 -15 -9 -5 3 -9 1 -9 -5 0 -5 9 -13 20 -16 11 -3 25 -16 32 -28 12
-22 14 -28 17 -47 0 -5 8 -7 16 -4 9 4 15 0 15 -9 0 -8 14 -20 32 -28 17 -7
26 -15 20 -17 -9 -3 -9 -9 0 -25 7 -12 11 -26 9 -32 -1 -5 3 -5 10 2 13 13 42
6 33 -8 -3 -5 20 -33 50 -63 30 -29 52 -56 49 -60 -3 -3 -19 8 -35 24 -15 17
-32 30 -37 30 -5 0 -13 9 -16 20 -3 11 -13 20 -21 20 -8 0 -12 5 -9 10 3 6 0
10 -8 10 -8 0 -27 12 -43 28 -16 15 -50 40 -76 55 -27 15 -48 31 -48 35 0 4
-10 12 -23 18 -64 32 -92 48 -97 54 -9 12 -209 110 -270 133 -14 5 -33 13 -42
18 -10 5 -27 9 -37 9 -11 0 -23 5 -26 10 -3 6 -17 10 -31 10 -13 0 -32 4 -42
9 -28 15 -129 39 -260 61 -95 15 -168 20 -315 20 -179 0 -237 -5 -377 -31 -30
-6 -73 -13 -95 -16 -22 -3 -44 -9 -50 -14 -5 -5 -24 -9 -41 -9 -18 0 -36 -4
-39 -10 -3 -5 -17 -10 -30 -10 -13 0 -26 -4 -29 -9 -3 -4 -20 -11 -37 -15 -88
-17 -388 -176 -525 -277 -268 -198 -462 -440 -604 -754 -12 -27 -26 -58 -31
-67 -5 -10 -9 -27 -9 -37 0 -11 -4 -22 -9 -25 -19 -12 -68 -247 -83 -398 -10
-99 -9 -137 5 -250 9 -73 20 -154 25 -180 6 -32 5 -45 -2 -41 -23 10 -182 206
-226 278 -13 22 -27 42 -31 45 -9 7 -99 183 -122 240 -10 25 -23 54 -27 65
-27 61 -77 234 -84 290 -3 22 -10 69 -15 105 -13 78 -13 446 -1 510 42 227 67
325 99 390 12 24 21 52 21 62 0 11 5 15 14 12 10 -4 12 2 9 20 -3 16 -1 26 6
26 6 0 11 10 12 23 1 21 1 21 8 -3 l7 -24 15 22 c9 12 18 19 22 16 3 -3 13 6
22 20 10 14 22 26 28 26 5 0 16 8 23 18 7 9 17 17 23 17 6 0 11 4 10 8 -2 14
53 67 63 61 4 -3 8 2 8 10 0 9 7 16 15 16 9 0 18 7 21 15 4 8 17 15 30 15 17
0 24 6 24 19 0 15 6 19 25 16 14 -1 25 3 26 9 0 14 57 59 75 59 8 0 14 3 14 7
0 4 6 7 14 7 8 0 30 8 51 17 20 10 45 16 55 13 12 -3 20 2 24 15 3 14 10 19
21 14 9 -3 13 -2 10 4 -3 6 3 10 15 10 11 0 37 7 58 15 23 10 38 12 40 6 2 -6
24 -2 55 10 29 12 64 21 78 20 15 -1 39 5 54 13 15 8 33 12 40 10 7 -3 16 0
20 6 5 7 11 8 19 1 8 -7 20 -6 37 3 27 14 59 17 59 6 0 -11 39 -5 52 8 14 14
32 16 23 3 -3 -5 -1 -12 4 -15 5 -4 12 -3 15 2 2 4 22 9 42 10 21 2 41 6 44
10 3 4 21 8 40 9 69 5 136 13 180 23 25 6 54 12 65 15 11 2 65 19 120 39 55
19 129 42 164 51 124 32 321 52 321 33z m910 -488 c0 -5 -2 -10 -4 -10 -3 0
-8 5 -11 10 -3 6 -1 10 4 10 6 0 11 -4 11 -10z m-970 -339 c0 -6 21 -13 48
-17 26 -5 49 -9 52 -9 46 -12 73 -24 129 -54 63 -34 82 -44 161 -80 49 -22
130 -79 162 -114 16 -18 31 -26 39 -21 7 4 10 3 6 -3 -4 -5 6 -16 21 -24 14
-8 33 -21 42 -29 9 -8 38 -34 65 -57 77 -65 215 -201 215 -213 0 -5 7 -10 16
-10 8 0 13 -4 9 -9 -3 -5 4 -12 15 -16 11 -3 20 -12 20 -20 0 -7 9 -15 20 -18
11 -3 20 -9 19 -14 -4 -24 3 -43 17 -43 8 0 13 -4 10 -9 -3 -4 3 -16 14 -26
11 -10 20 -23 20 -29 0 -6 11 -20 25 -30 14 -10 25 -26 25 -35 0 -9 20 -37 45
-61 25 -24 45 -51 45 -60 0 -9 13 -34 30 -57 16 -22 27 -43 23 -47 -3 -3 -1
-6 4 -6 6 0 21 -19 33 -42 39 -76 47 -88 53 -82 4 4 10 -2 13 -12 4 -10 26
-46 48 -79 47 -70 50 -74 128 -225 33 -63 64 -119 69 -124 5 -6 9 -18 9 -27 0
-10 3 -19 8 -21 11 -5 52 -84 52 -102 0 -9 4 -16 10 -16 5 0 13 -12 16 -27 4
-16 15 -44 24 -63 25 -48 59 -140 63 -168 2 -12 9 -28 15 -34 7 -7 12 -21 12
-32 0 -12 10 -55 21 -96 11 -41 22 -88 25 -104 2 -17 10 -33 17 -38 6 -4 9 -8
5 -8 -4 0 -2 -15 3 -32 6 -18 12 -49 14 -68 2 -19 9 -66 16 -105 7 -38 12 -74
11 -79 -2 -4 3 -25 9 -45 7 -20 13 -47 15 -61 1 -14 3 -27 5 -30 1 -3 3 -9 4
-15 1 -5 5 -26 8 -45 9 -49 14 -329 5 -324 -3 2 -10 -10 -13 -28 -4 -18 -12
-39 -18 -46 -6 -7 -7 -36 -4 -72 4 -35 3 -62 -3 -65 -6 -3 -10 -14 -10 -24 0
-10 -6 -31 -14 -47 -8 -16 -24 -51 -36 -79 -76 -173 -137 -295 -203 -405 -28
-47 -53 -87 -56 -90 -10 -9 -71 -100 -71 -107 0 -3 -8 -13 -18 -22 -11 -9 -21
-23 -25 -31 -4 -12 -6 -11 -6 3 -1 10 6 25 14 33 8 9 15 24 15 35 0 11 7 33
15 49 8 16 16 54 18 84 1 29 5 52 10 49 12 -7 20 25 13 52 -5 20 -11 24 -34
21 -19 -2 -29 2 -29 10 0 7 5 10 11 7 6 -3 0 5 -14 19 l-25 24 -17 -20 c-14
-16 -18 -17 -18 -6 0 9 -9 16 -20 17 -22 2 -23 1 -14 -21 3 -9 11 -13 17 -9 6
3 7 1 3 -5 -11 -17 -47 4 -40 23 5 11 -1 15 -21 15 -21 0 -26 4 -21 16 3 9 -1
25 -9 37 -8 12 -15 16 -15 10 0 -7 5 -15 10 -18 16 -10 11 -21 -10 -21 -11 0
-20 6 -20 13 0 7 -5 13 -12 13 -6 0 -3 10 8 23 l19 22 -21 -18 c-19 -15 -20
-22 -10 -43 7 -16 17 -23 28 -20 11 2 15 -1 11 -11 -4 -9 2 -16 16 -20 11 -3
21 -11 21 -19 0 -25 -19 -24 -46 3 -15 16 -22 20 -15 11 9 -12 10 -18 2 -18
-6 0 -12 5 -12 10 -1 6 -2 14 -3 19 0 5 -4 12 -8 16 -4 4 -4 13 -1 21 3 8 -2
17 -12 20 -9 4 -14 12 -11 19 5 14 -27 28 -57 25 -11 -1 -21 7 -24 20 -4 15
-11 20 -24 17 -10 -3 -17 0 -16 6 3 17 30 36 41 30 5 -4 6 -1 2 6 -4 6 -11 9
-16 6 -5 -3 -13 3 -19 12 -9 16 -10 16 -11 1 0 -9 6 -18 12 -20 7 -3 2 -7 -10
-10 -12 -4 -22 -2 -22 4 0 7 -5 6 -14 -1 -11 -9 -15 -8 -20 5 -4 12 -2 15 9
10 19 -7 19 8 0 24 -8 7 -15 21 -15 31 0 11 -5 16 -14 13 -7 -3 -16 2 -19 10
-4 9 -1 15 5 13 6 -1 13 5 15 13 4 13 3 13 -6 0 -6 -8 -11 -11 -11 -6 0 5 -9
1 -20 -9 -11 -10 -17 -23 -13 -29 4 -6 0 -6 -9 1 -8 7 -19 9 -24 5 -4 -4 -2 1
5 10 7 10 18 15 25 11 6 -3 7 -2 3 3 -5 5 -13 10 -18 10 -5 1 -13 2 -19 3 -5
0 -7 8 -4 16 4 8 11 12 18 9 6 -3 0 3 -14 14 -13 11 -28 18 -32 16 -4 -3 -5 3
-1 12 5 13 3 16 -10 11 -11 -4 -17 -1 -17 9 0 11 6 13 20 9 11 -4 20 -2 20 4
0 6 7 11 16 11 10 0 14 -6 11 -15 -4 -8 -3 -16 1 -19 4 -2 9 7 10 21 2 23 -1
25 -28 21 -17 -3 -30 0 -30 6 0 6 -5 5 -12 -2 -9 -9 -15 -9 -25 0 -16 13 -39
-4 -29 -21 11 -18 26 -13 20 7 -5 14 -4 15 5 2 15 -21 14 -30 -4 -30 -8 0 -22
11 -31 26 -10 15 -23 23 -31 19 -9 -3 -13 0 -10 7 2 7 10 12 16 11 6 -2 11 3
12 10 0 6 4 3 8 -7 5 -13 10 -16 14 -8 4 6 -2 20 -14 31 l-22 20 -19 -21 c-10
-12 -18 -25 -18 -30 0 -5 -7 -16 -15 -24 -8 -9 -15 -14 -15 -12 0 2 23 48 50
102 28 55 50 106 50 114 0 8 6 12 13 9 10 -4 12 3 9 24 -3 17 0 29 7 29 6 0
11 7 11 16 0 18 37 139 51 166 5 10 9 29 9 42 0 14 4 27 9 30 4 3 11 27 15 53
3 27 10 73 16 103 31 172 37 508 10 655 -27 149 -76 343 -91 359 -5 6 -9 19
-9 31 0 12 -4 25 -9 31 -5 5 -16 32 -25 61 -10 29 -28 74 -42 100 -13 26 -24
54 -24 61 0 6 -4 12 -10 12 -5 0 -10 6 -10 14 0 17 -152 258 -200 318 -44 54
-222 233 -275 276 -118 96 -328 220 -465 274 -14 6 -32 13 -40 17 -13 6 -113
38 -226 72 -17 5 -45 9 -63 9 -18 0 -42 5 -53 11 -29 15 -361 15 -430 -1 -29
-6 -78 -18 -109 -26 -30 -8 -62 -14 -70 -14 -8 0 23 36 69 79 88 84 243 194
357 255 156 83 427 169 600 189 57 7 65 7 65 -2z m-3516 -55 c-3 -15 -8 -25
-11 -23 -2 3 -1 17 3 31 3 15 8 25 11 23 2 -3 1 -17 -3 -31z m5177 -363 c7
-13 16 -23 21 -23 4 0 8 -5 8 -12 0 -6 -20 10 -45 35 -25 26 -45 50 -45 53 0
11 49 -32 61 -53z m107 -123 c29 -38 29 -51 0 -14 -12 16 -27 32 -33 36 -7 5
-7 8 1 8 5 0 20 -13 32 -30z m62 -84 c0 -6 -7 -1 -15 10 -8 10 -15 23 -15 28
0 6 7 1 15 -10 8 -10 15 -23 15 -28z m88 -119 c55 -83 57 -87 44 -87 -5 0 -17
18 -28 40 -10 22 -22 40 -26 40 -5 0 -8 6 -8 14 0 8 -3 16 -7 18 -10 4 -53 65
-53 73 0 13 28 -22 78 -98z m70 -128 c-3 -8 -7 -3 -11 10 -4 17 -3 21 5 13 5
-5 8 -16 6 -23z m19 -31 c-3 -8 -6 -5 -6 6 -1 11 2 17 5 13 3 -3 4 -12 1 -19z
m20 -40 c-3 -8 -6 -5 -6 6 -1 11 2 17 5 13 3 -3 4 -12 1 -19z m20 -40 c-3 -8
-6 -5 -6 6 -1 11 2 17 5 13 3 -3 4 -12 1 -19z m72 -148 c0 -18 -38 59 -39 78
0 6 -4 12 -10 12 -5 0 -10 10 -9 23 0 15 9 3 29 -38 16 -33 29 -67 29 -75z
m25 -45 c3 -8 1 -15 -4 -15 -6 0 -10 7 -10 15 0 8 2 15 4 15 2 0 6 -7 10 -15z
m47 -127 c22 -65 27 -88 21 -88 -7 0 -63 167 -62 185 1 9 19 -34 41 -97z m52
-130 c-7 -12 23 -49 32 -40 4 4 5 -8 2 -26 -5 -22 -3 -34 6 -38 8 -3 11 -17 9
-39 -3 -24 2 -40 17 -56 11 -12 18 -26 15 -31 -3 -4 -1 -8 5 -8 6 0 13 -11 17
-25 3 -14 12 -25 20 -25 8 0 13 -6 12 -12 -2 -7 4 -12 13 -12 9 1 16 -5 16
-12 0 -7 -5 -10 -11 -7 -6 4 -5 -1 2 -10 8 -9 11 -21 7 -27 -3 -5 1 -10 9 -10
9 0 16 -7 16 -16 0 -8 5 -12 10 -9 6 3 10 2 10 -3 0 -5 9 -12 21 -15 16 -4 19
-10 14 -28 -6 -19 -4 -21 15 -16 17 4 20 3 11 -6 -13 -13 -15 -41 -3 -33 5 3
18 -2 30 -10 22 -15 29 -39 14 -48 -5 -3 -8 4 -8 16 1 12 -6 23 -14 25 -12 4
-12 3 -2 -5 8 -5 12 -17 10 -27 -2 -12 5 -19 22 -22 13 -2 29 -9 35 -15 7 -8
5 -9 -6 -5 -13 4 -16 0 -15 -17 1 -17 6 -22 21 -19 15 4 17 2 6 -5 -9 -7 -10
-12 -2 -16 6 -4 11 -21 11 -37 0 -17 6 -32 15 -35 8 -4 15 -10 15 -16 0 -5 -6
-6 -12 -3 -7 4 -3 -2 9 -13 12 -11 19 -23 15 -27 -4 -5 -2 -5 4 -2 13 8 74
-65 74 -88 0 -9 5 -13 10 -10 6 3 10 -3 10 -14 0 -12 4 -21 9 -21 5 0 14 -14
20 -30 5 -17 16 -29 23 -28 7 2 12 -3 10 -11 -1 -7 6 -21 17 -31 12 -9 17 -20
13 -24 -4 -4 1 -12 11 -17 9 -6 17 -18 17 -28 0 -11 7 -22 16 -25 11 -4 15
-14 11 -31 -2 -14 -2 -23 1 -21 9 10 42 -15 42 -30 0 -10 6 -14 14 -11 10 4
14 0 11 -13 -2 -11 3 -24 12 -28 8 -5 16 -22 18 -38 4 -47 18 -74 33 -65 11 7
10 11 -2 24 -10 10 -12 18 -6 22 5 3 10 1 10 -6 0 -8 4 -8 15 1 8 7 15 10 15
6 0 -8 -69 -192 -92 -246 -26 -60 -131 -274 -138 -280 -3 -3 -16 -25 -29 -50
-69 -130 -259 -412 -336 -497 -5 -6 -44 -53 -85 -104 -71 -87 -397 -422 -505
-519 -295 -264 -597 -487 -879 -649 -89 -50 -125 -59 -75 -18 15 12 71 59 125
104 106 87 338 319 420 418 27 33 51 62 54 65 3 3 18 23 35 45 16 22 32 42 35
45 8 7 72 89 90 116 8 12 38 55 66 95 88 129 179 289 264 464 46 94 87 181 93
195 5 14 14 34 18 45 5 11 26 73 48 138 22 65 42 121 45 124 3 4 6 19 6 34 0
15 4 30 9 33 5 3 11 20 14 38 6 35 19 95 37 168 6 25 15 74 21 110 5 36 15 94
20 130 6 36 13 204 16 374 5 331 -4 449 -49 656 -11 52 -24 113 -29 135 -4 22
-15 63 -23 90 -20 65 -21 80 -2 63 8 -7 12 -16 9 -20z m-2051 -840 c-11 -24
-23 -63 -27 -88 -12 -82 -58 -200 -78 -200 -4 0 -6 -4 -3 -9 6 -9 -31 -45 -56
-54 -15 -5 -16 -3 -2 36 l15 42 -24 -27 c-38 -44 -40 -32 -3 20 44 62 146 235
170 290 11 23 21 40 24 38 2 -3 -5 -24 -16 -48z m-157 -388 c3 -6 -1 -7 -9 -4
-18 7 -21 14 -7 14 6 0 13 -4 16 -10z m-95 -10 c0 -9 -108 -120 -117 -120 -8
0 10 23 60 77 53 56 57 59 57 43z m3134 -24 c-3 -15 -8 -25 -11 -23 -2 3 -1
17 3 31 3 15 8 25 11 23 2 -3 1 -17 -3 -31z m-1974 -956 c12 -23 12 -24 -3
-11 -10 7 -17 10 -17 7 0 -4 -5 -4 -10 -1 -8 5 -7 11 1 21 6 8 13 13 14 12 1
-2 8 -14 15 -28z m63 -67 c-7 -2 -19 -2 -25 0 -7 3 -2 5 12 5 14 0 19 -2 13
-5z m41 -44 c-2 -4 4 -10 13 -12 15 -4 15 -5 2 -6 -9 0 -22 5 -28 12 -8 10 -7
14 4 14 8 0 12 -4 9 -8z m316 -123 c0 -2 -8 -10 -17 -17 -16 -13 -17 -12 -4 4
13 16 21 21 21 13z m80 -67 c0 -6 -4 -7 -10 -4 -5 3 -10 11 -10 16 0 6 5 7 10
4 6 -3 10 -11 10 -16z m-112 -359 c-7 -11 -16 -20 -20 -20 -5 0 -3 9 4 20 7
11 16 20 20 20 5 0 3 -9 -4 -20z"/>
<path d="M4975 7670 c-3 -5 -1 -10 4 -10 6 0 11 5 11 10 0 6 -2 10 -4 10 -3 0
-8 -4 -11 -10z"/>
<path d="M3169 3369 c-11 -7 -9 -10 9 -15 12 -4 22 -14 22 -23 0 -13 2 -14 9
-2 18 28 -12 58 -40 40z"/>
<path d="M3280 3314 c0 -13 18 -39 24 -34 2 3 -2 14 -10 24 -8 11 -14 16 -14
10z"/>
<path d="M3323 3277 c0 -8 6 -14 14 -14 9 0 10 4 2 14 -6 7 -12 13 -14 13 -1
0 -2 -6 -2 -13z"/>
<path d="M5730 2373 c8 -3 8 -9 0 -18 -7 -9 -7 -15 3 -23 10 -8 12 -5 11 16 0
14 -6 27 -13 28 -7 2 -7 0 -1 -3z"/>
<path d="M5850 2330 c-9 -6 -10 -10 -3 -10 6 0 15 5 18 10 8 12 4 12 -15 0z"/>
<path d="M5760 2309 c0 -5 5 -7 10 -4 6 3 10 8 10 11 0 2 -4 4 -10 4 -5 0 -10
-5 -10 -11z"/>
<path d="M5790 2300 c0 -15 6 -19 25 -18 14 1 25 3 25 4 0 1 -11 9 -25 18 -24
16 -25 16 -25 -4z"/>
<path d="M5890 2170 c0 -5 5 -10 11 -10 5 0 7 -6 3 -12 -4 -7 -3 -9 1 -5 15
13 14 37 -1 37 -8 0 -14 -4 -14 -10z"/>
<path d="M6100 1980 c-9 -6 -10 -10 -3 -10 6 0 15 5 18 10 8 12 4 12 -15 0z"/>
<path d="M6145 1969 c-4 -6 -5 -12 -2 -15 2 -3 7 2 10 11 7 17 1 20 -8 4z"/>
<path d="M6276 1868 c3 -5 10 -6 15 -3 13 9 11 12 -6 12 -8 0 -12 -4 -9 -9z"/>
<path d="M6470 1870 c0 -5 7 -7 15 -4 8 4 15 8 15 10 0 2 -7 4 -15 4 -8 0 -15
-4 -15 -10z"/>
</g>
</svg>
