<?xml version="1.0" standalone="no"?>
<!DOCTYPE svg PUBLIC "-//W3C//DTD SVG 20010904//EN"
 "http://www.w3.org/TR/2001/REC-SVG-20010904/DTD/svg10.dtd">
<svg version="1.0" xmlns="http://www.w3.org/2000/svg"
 width="506.000000pt" height="392.000000pt" viewBox="0 0 506.000000 392.000000"
 preserveAspectRatio="xMidYMid meet">

<g transform="translate(0.000000,392.000000) scale(0.100000,-0.100000)"
fill="#000000" stroke="none">
<path d="M2541 3829 c-203 -23 -454 -115 -623 -230 -232 -158 -406 -391 -521
-699 -60 -161 -80 -280 -80 -470 0 -142 3 -181 25 -275 79 -339 285 -599 555
-703 111 -43 196 -56 332 -49 128 6 212 27 321 82 62 31 226 152 218 161 -2 2
-39 -4 -82 -12 -201 -41 -468 55 -639 231 -114 117 -188 252 -228 421 -18 76
-20 109 -16 229 6 165 22 235 82 360 155 319 485 530 902 576 427 46 846 -111
1220 -457 l105 -97 -58 81 c-161 230 -376 446 -589 594 -288 200 -618 292
-924 257z"/>
<path d="M1720 3578 c-293 -205 -567 -496 -709 -752 -233 -422 -236 -843 -10
-1286 178 -348 537 -605 979 -702 114 -25 341 -29 465 -9 288 47 539 195 686
404 102 145 145 300 136 492 -8 183 -65 333 -180 474 -64 80 -81 87 -59 29 18
-52 20 -209 3 -283 -70 -295 -299 -526 -611 -615 -103 -30 -296 -38 -405 -17
-337 64 -613 321 -734 684 -51 154 -65 248 -65 438 0 196 20 312 81 475 85
228 190 394 379 598 53 56 94 102 92 102 -2 -1 -23 -15 -48 -32z"/>
<path d="M2810 3349 c-228 -14 -442 -94 -616 -231 -78 -61 -123 -111 -185
-205 -132 -203 -157 -502 -60 -734 30 -70 114 -200 157 -240 l25 -24 -12 30
c-8 18 -13 76 -13 150 0 108 3 129 31 207 80 230 255 409 487 502 111 45 198
60 341 60 138 0 208 -13 328 -60 189 -74 368 -237 476 -435 95 -175 139 -345
148 -569 4 -130 2 -175 -15 -276 -57 -333 -228 -638 -505 -900 -97 -93 -87
-91 58 8 334 227 620 554 746 849 73 172 103 317 103 504 0 214 -50 416 -155
624 -132 258 -332 449 -624 594 -234 117 -454 161 -715 146z"/>
<path d="M2815 2764 c-133 -30 -305 -120 -370 -194 l-20 -23 25 7 c62 17 178
18 257 2 310 -63 544 -292 631 -615 20 -79 25 -120 25 -226 1 -197 -40 -340
-144 -495 -199 -297 -558 -470 -972 -470 -415 1 -792 176 -1122 522 -54 56
-95 96 -90 88 5 -8 39 -60 76 -115 321 -474 728 -780 1146 -861 118 -23 329
-24 448 -1 210 41 445 141 590 252 215 165 396 429 494 722 99 293 79 665 -48
922 -116 235 -281 388 -497 461 -88 29 -113 33 -229 36 -92 3 -150 -1 -200
-12z"/>
</g>
</svg>
