<?xml version="1.0" standalone="no"?>
<!DOCTYPE svg PUBLIC "-//W3C//DTD SVG 20010904//EN"
 "http://www.w3.org/TR/2001/REC-SVG-20010904/DTD/svg10.dtd">
<svg version="1.0" xmlns="http://www.w3.org/2000/svg"
 width="527.000000pt" height="523.000000pt" viewBox="0 0 527.000000 523.000000"
 preserveAspectRatio="xMidYMid meet">

<g transform="translate(0.000000,523.000000) scale(0.100000,-0.100000)"
fill="#000000" stroke="none">
<path d="M2335 5139 c-317 -18 -586 -90 -880 -234 -401 -196 -720 -482 -960
-861 -132 -209 -263 -527 -314 -767 -48 -222 -65 -550 -40 -775 60 -555 302
-1065 689 -1452 375 -375 834 -607 1360 -686 155 -24 500 -24 654 0 98 14 325
63 335 72 2 2 -30 45 -71 96 -118 147 -289 401 -411 608 l-26 44 -173 1 c-197
2 -296 17 -456 70 -501 168 -889 585 -1021 1097 -44 172 -54 268 -48 468 8
256 46 408 156 635 76 155 161 274 286 399 221 222 499 367 810 423 124 23
369 22 500 -1 477 -85 893 -396 1103 -827 243 -499 203 -1103 -103 -1558 l-56
-84 19 -26 c10 -14 83 -118 162 -231 78 -113 179 -251 224 -308 45 -57 86
-110 93 -119 11 -14 19 -9 60 37 238 264 435 639 523 993 146 590 81 1176
-189 1705 -235 458 -606 824 -1064 1047 -377 183 -749 259 -1162 234z m402
-154 c489 -64 940 -285 1290 -633 346 -344 575 -815 639 -1314 23 -181 16
-491 -16 -668 -57 -321 -176 -620 -352 -880 -92 -137 -102 -150 -114 -150 -11
1 -127 160 -127 175 0 5 31 55 68 110 128 189 248 474 294 701 36 174 44 285
38 503 -4 169 -10 228 -32 331 -65 309 -197 601 -384 845 -68 90 -246 269
-336 340 -398 311 -894 465 -1370 427 -475 -39 -884 -221 -1221 -544 -421
-405 -642 -952 -621 -1538 12 -321 78 -585 218 -862 106 -213 232 -381 417
-559 227 -219 500 -382 790 -473 227 -71 515 -104 741 -86 110 10 136 9 142
-2 4 -7 35 -51 68 -98 l61 -85 -26 -7 c-115 -31 -467 -41 -649 -19 -343 42
-681 168 -975 364 -1001 668 -1307 2018 -693 3052 118 200 242 352 413 510
334 308 784 513 1240 564 126 14 371 12 497 -4z m-18 -370 c282 -40 530 -136
776 -299 347 -231 594 -555 729 -958 180 -537 102 -1156 -207 -1636 l-53 -83
-59 82 -58 82 27 46 c100 168 186 388 227 581 20 91 23 135 23 325 0 201 -2
231 -27 346 -72 341 -217 610 -456 850 -264 264 -593 427 -954 475 -157 21
-399 14 -538 -15 -676 -144 -1180 -671 -1305 -1366 -27 -151 -25 -432 4 -588
95 -508 393 -937 828 -1193 244 -144 530 -224 795 -224 112 0 119 -1 132 -22
8 -13 32 -53 55 -89 23 -36 42 -69 42 -73 0 -5 -93 -6 -207 -4 -161 4 -233 10
-318 27 -457 93 -875 353 -1151 716 -279 367 -423 856 -385 1302 37 424 183
783 443 1090 291 343 719 574 1168 632 108 14 357 12 469 -4z"/>
<path d="M1865 2566 c-110 -18 -224 -52 -325 -95 -89 -38 -183 -91 -164 -91
36 0 195 -34 265 -56 269 -85 497 -230 714 -455 173 -180 277 -323 480 -659
318 -527 505 -753 768 -931 318 -214 660 -263 1012 -145 237 80 430 217 543
385 48 72 52 86 20 77 -274 -80 -582 -18 -842 169 -208 149 -295 250 -664 771
-282 399 -479 606 -737 777 -174 114 -375 200 -565 242 -102 22 -398 29 -505
11z m405 -141 c149 -22 263 -60 415 -135 187 -93 303 -178 465 -340 147 -147
233 -253 431 -533 299 -421 399 -545 544 -671 141 -122 354 -246 478 -277 88
-22 54 -32 -90 -26 -167 6 -256 28 -399 97 -132 64 -245 148 -374 279 -122
123 -207 234 -374 485 -238 359 -371 531 -527 681 -205 197 -440 343 -684 424
l-90 30 55 0 c30 1 98 -6 150 -14z m-63 -190 c209 -84 385 -205 568 -389 140
-141 229 -257 463 -606 94 -140 209 -302 255 -360 229 -284 493 -474 763 -546
76 -21 133 -28 244 -33 l145 -6 -60 -23 c-162 -61 -388 -75 -549 -33 -222 57
-406 171 -597 367 -137 141 -264 320 -472 664 -303 502 -542 783 -817 964 -69
45 -53 46 57 1z"/>
</g>
</svg>
