<?xml version="1.0" standalone="no"?>
<!DOCTYPE svg PUBLIC "-//W3C//DTD SVG 20010904//EN"
 "http://www.w3.org/TR/2001/REC-SVG-20010904/DTD/svg10.dtd">
<svg version="1.0" xmlns="http://www.w3.org/2000/svg"
 width="649.000000pt" height="132.000000pt" viewBox="0 0 649.000000 132.000000"
 preserveAspectRatio="xMidYMid meet">

<g transform="translate(0.000000,132.000000) scale(0.100000,-0.100000)"
fill="#000000" stroke="none">
<path d="M4040 1109 c-121 -24 -247 -125 -307 -246 -26 -54 -28 -66 -28 -178
0 -117 1 -122 34 -190 45 -90 117 -162 206 -206 67 -32 75 -34 185 -34 114 0
117 1 192 38 174 86 272 273 239 457 -45 250 -273 407 -521 359z m231 -106
c175 -78 256 -292 176 -466 -64 -141 -232 -229 -375 -197 -126 28 -203 88
-255 198 -58 122 -39 268 48 370 36 42 99 85 155 106 62 22 189 17 251 -11z"/>
<path d="M4030 920 c-91 -42 -160 -144 -160 -235 0 -186 209 -317 375 -234
192 96 190 371 -4 466 -56 27 -156 28 -211 3z m199 -98 c14 -10 37 -34 49 -53
34 -48 28 -141 -11 -192 -58 -77 -174 -87 -247 -21 -46 42 -64 90 -57 150 5
47 42 105 80 126 56 30 138 26 186 -10z"/>
<path d="M360 1069 c-76 -31 -140 -124 -139 -204 0 -87 50 -169 123 -204 43
-20 61 -21 301 -21 276 0 285 -2 335 -55 33 -35 35 -116 5 -157 -40 -55 -59
-58 -345 -58 -179 0 -268 4 -283 12 -28 15 -46 38 -47 61 0 16 20 17 289 17
250 0 292 2 305 16 9 8 16 22 16 29 0 7 -7 21 -16 29 -13 14 -59 16 -350 16
l-334 0 0 -60 c0 -98 33 -158 105 -191 36 -17 69 -19 315 -19 255 0 278 2 320
21 90 41 134 108 134 204 -1 92 -41 157 -124 201 -31 17 -67 20 -305 24 -293
5 -301 7 -335 63 -37 61 -16 143 47 184 24 16 57 18 284 21 212 3 262 1 293
-12 32 -13 56 -46 56 -77 0 -5 -125 -10 -296 -11 -270 -3 -298 -5 -308 -20 -8
-13 -8 -23 0 -35 10 -17 40 -18 353 -21 l341 -2 0 58 c0 78 -35 150 -89 180
-37 21 -48 22 -332 21 -168 0 -305 -4 -319 -10z"/>
<path d="M1260 905 l0 -175 45 0 45 0 0 136 0 135 43 -3 42 -3 3 -132 3 -133
259 0 260 0 0 136 0 135 43 -3 42 -3 3 -312 2 -313 -45 0 -45 0 0 135 0 135
-350 0 -350 0 0 -180 0 -180 135 0 135 0 0 90 0 90 -45 0 -45 0 0 -45 0 -45
-45 0 -45 0 0 90 0 90 260 0 260 0 0 -135 0 -136 133 3 132 3 3 398 2 397
-135 0 -135 0 0 -130 0 -130 -170 0 -170 0 0 130 0 130 -135 0 -135 0 0 -175z"/>
<path d="M2300 680 l0 -400 130 0 130 0 0 45 0 45 -90 0 -90 0 2 313 3 312 45
0 45 0 0 -268 0 -267 43 0 42 0 0 310 0 310 -130 0 -130 0 0 -400z"/>
<path d="M2720 950 l0 -130 341 2 c313 3 343 4 353 21 8 12 8 22 0 35 -10 15
-39 17 -305 22 l-294 5 0 45 0 45 255 3 c329 4 353 1 402 -48 34 -34 38 -43
38 -89 0 -44 -5 -56 -34 -89 l-34 -37 -359 -5 -358 -5 0 -220 0 -220 133 -3
132 -3 0 91 0 90 103 0 102 0 50 -88 50 -87 153 -3 c83 -1 152 0 152 3 0 3
-34 64 -76 135 l-77 130 -49 0 -50 0 38 -67 c20 -38 44 -78 52 -90 14 -23 14
-23 -39 -23 l-54 0 -50 90 -50 90 -172 0 -173 0 0 -90 0 -90 -45 0 -45 0 0
135 0 135 310 0 c295 0 312 1 355 21 171 80 166 331 -7 403 -31 14 -94 16
-393 16 l-355 0 0 -130z"/>
<path d="M4568 1032 c100 -181 378 -652 384 -652 4 0 13 10 19 23 6 12 86 151
177 310 l164 287 49 0 c27 0 49 -3 49 -6 0 -3 -88 -159 -195 -345 -108 -187
-198 -346 -201 -354 -5 -12 3 -15 42 -15 45 0 51 3 68 33 85 145 436 761 436
764 0 1 -69 3 -152 3 l-153 -1 -149 -260 c-81 -143 -152 -259 -157 -257 -10 3
-249 415 -249 429 0 5 20 9 45 9 51 0 46 6 150 -173 l57 -99 25 43 c13 23 21
49 19 56 -3 8 -37 68 -76 133 l-71 120 -154 0 -153 0 26 -48z"/>
<path d="M5557 686 c-125 -217 -227 -397 -227 -400 0 -4 68 -5 152 -4 l152 3
151 262 c82 144 153 263 156 263 3 0 16 -19 29 -42 22 -42 172 -299 212 -365
l20 -33 -54 0 -53 0 -74 130 c-40 72 -76 130 -80 130 -3 0 -16 -18 -29 -40
l-23 -40 78 -133 79 -132 153 -3 153 -3 -33 59 c-241 423 -375 649 -382 643
-4 -4 -82 -136 -172 -292 -90 -156 -169 -292 -177 -302 -10 -14 -24 -18 -60
-15 l-47 3 196 340 c107 187 197 346 200 353 4 8 -9 12 -44 12 l-49 0 -227
-394z"/>
</g>
</svg>
