<?xml version="1.0" standalone="no"?>
<!DOCTYPE svg PUBLIC "-//W3C//DTD SVG 20010904//EN"
 "http://www.w3.org/TR/2001/REC-SVG-20010904/DTD/svg10.dtd">
<svg version="1.0" xmlns="http://www.w3.org/2000/svg"
 width="494.000000pt" height="424.000000pt" viewBox="0 0 494.000000 424.000000"
 preserveAspectRatio="xMidYMid meet">

<g transform="translate(0.000000,424.000000) scale(0.100000,-0.100000)"
fill="#000000" stroke="none">
<path d="M1361 4029 c-641 -74 -1063 -711 -885 -1337 77 -274 270 -510 525
-642 167 -86 235 -101 514 -110 132 -5 659 -9 1171 -9 900 -1 933 -2 1010 -21
109 -28 211 -89 293 -175 79 -84 111 -136 147 -241 50 -144 34 -346 -36 -484
-57 -112 -176 -226 -291 -280 -137 -63 -64 -60 -1406 -60 l-1222 0 -65 24
c-78 28 -123 61 -176 127 -45 57 -75 132 -85 212 l-7 57 1344 0 c1506 0 1417
-4 1481 70 34 40 57 97 57 142 0 82 -70 176 -147 197 -26 8 -529 11 -1597 11
l-1558 0 5 -282 c4 -249 7 -293 26 -363 77 -287 290 -504 578 -587 l78 -23
1290 0 1290 0 100 28 c304 83 547 284 680 562 236 493 58 1077 -415 1363 -73
43 -158 79 -270 113 l-75 23 -1175 6 c-1091 6 -1179 8 -1230 24 -263 86 -440
309 -457 575 -19 318 211 607 527 661 46 8 418 10 1265 8 l1200 -3 56 -23 c31
-12 77 -39 102 -58 85 -66 157 -204 157 -300 l0 -44 -1367 -2 -1368 -3 -49
-34 c-57 -40 -86 -94 -86 -166 0 -88 44 -156 125 -192 38 -17 123 -18 1603
-21 l1562 -2 0 257 c0 212 -4 274 -19 348 -74 359 -345 609 -711 654 -103 13
-2378 13 -2489 0z"/>
</g>
</svg>
